HIERARCHY
ROOT root
{
	OFFSET 0.000000 0.000000 0.000000
	CHANNELS 6 Xposition Yposition Zposition Zrotation Yrotation Xrotation
	JOINT lhip
	{
		OFFSET 0.058581 -0.082280 -0.017664
		CHANNELS 3 Zrotation Yrotation Xrotation
		JOINT lknee
		{
			OFFSET 0.043451 -0.386469 0.008037
			CHANNELS 3 Zrotation Yrotation Xrotation
			JOINT lankle
			{
				OFFSET -0.014790 -0.426874 -0.037428
				CHANNELS 3 Zrotation Yrotation Xrotation
				JOINT ltoe
				{
					OFFSET 0.041054 -0.060286 0.122042
					CHANNELS 3 Zrotation Yrotation Xrotation
					End Site
					{
						OFFSET 0.000000 0.000000 0.000000
					}
				}
			}
		}
	}
	JOINT rhip
	{
		OFFSET -0.060310 -0.090513 -0.013543
		CHANNELS 3 Zrotation Yrotation Xrotation
		JOINT rknee
		{
			OFFSET -0.043257 -0.383688 -0.004843
			CHANNELS 3 Zrotation Yrotation Xrotation
			JOINT rankle
			{
				OFFSET 0.019056 -0.420046 -0.034562
				CHANNELS 3 Zrotation Yrotation Xrotation
				JOINT rtoe
				{
					OFFSET -0.034840 -0.062106 0.130323
					CHANNELS 3 Zrotation Yrotation Xrotation
					End Site
					{
						OFFSET 0.000000 0.000000 0.000000
					}
				}
			}
		}
	}
	JOINT lowerback
	{
		OFFSET 0.004439 0.124404 -0.038385
		CHANNELS 3 Zrotation Yrotation Xrotation
		JOINT upperback
		{
			OFFSET 0.004488 0.137956 0.026820
			CHANNELS 3 Zrotation Yrotation Xrotation
			JOINT chest
			{
				OFFSET -0.002265 0.056032 0.002855
				CHANNELS 3 Zrotation Yrotation Xrotation
				JOINT lowerneck
				{
					OFFSET -0.013390 0.211636 -0.033468
					CHANNELS 3 Zrotation Yrotation Xrotation
					JOINT upperneck
					{
						OFFSET 0.010113 0.088937 0.050410
						CHANNELS 3 Zrotation Yrotation Xrotation
						End Site
						{
							OFFSET 0.000000 0.000000 0.000000
						}
					}
				}
				JOINT lclavicle
				{
					OFFSET 0.071702 0.114000 -0.018898
					CHANNELS 3 Zrotation Yrotation Xrotation
					JOINT lshoulder
					{
						OFFSET 0.122921 0.045205 -0.019046
						CHANNELS 3 Zrotation Yrotation Xrotation
						JOINT lelbow
						{
							OFFSET 0.255332 -0.015649 -0.022946
							CHANNELS 3 Zrotation Yrotation Xrotation
							JOINT lwrist
							{
								OFFSET 0.265709 0.012698 -0.007375
								CHANNELS 3 Zrotation Yrotation Xrotation
								End Site
								{
									OFFSET 0.000000 0.000000 0.000000
								}
							}
						}
					}
				}
				JOINT rclavicle
				{
					OFFSET -0.082954 0.112472 -0.023707
					CHANNELS 3 Zrotation Yrotation Xrotation
					JOINT rshoulder
					{
						OFFSET -0.113228 0.046853 -0.008472
						CHANNELS 3 Zrotation Yrotation Xrotation
						JOINT relbow
						{
							OFFSET -0.260127 -0.014369 -0.031269
							CHANNELS 3 Zrotation Yrotation Xrotation
							JOINT rwrist
							{
								OFFSET -0.269108 0.006794 -0.006027
								CHANNELS 3 Zrotation Yrotation Xrotation
								End Site
								{
									OFFSET 0.000000 0.000000 0.000000
								}
							}
						}
					}
				}
			}
		}
	}
}
MOTION
Frames: 7
Frame Time: 0.033333
0.422299 0.068734 1.021903 97.095716 -7.482368 93.611739 5.206638 3.876499 -12.440772 -7.354028 -7.110641 7.298472 -6.344647 5.510333 -3.643036 0.000000 -0.000000 0.000000 -11.262682 -5.171395 -5.401706 4.699948 -2.520824 3.168448 6.192639 -4.727804 -8.419225 0.000000 -0.000000 0.000000 5.021997 1.287776 4.753081 2.009043 -2.820648 15.415291 -2.008493 1.693160 -3.500925 -8.109617 -8.905756 30.019198 5.726898 -0.883413 5.847679 -19.655951 8.414083 -1.297616 -37.575531 0.658268 19.055877 -24.174379 -62.212632 36.672477 -14.313249 -20.109379 3.299058 10.053950 -3.952059 4.889088 8.271935 -4.452728 9.582009 50.196648 61.307344 60.739729 5.042409 21.120220 18.531902 
0.419663 0.077510 1.020559 98.739903 -6.852061 94.404220 3.849207 3.414604 -13.457359 -5.633287 -6.553915 3.583924 -5.900114 5.698953 -4.457494 0.000000 -0.000000 0.000000 -10.919107 -5.187698 -5.179745 4.440426 -3.139873 1.435278 6.895111 -5.650334 -7.899201 0.000000 -0.000000 0.000000 5.666897 1.247954 4.374950 3.573356 -3.211052 13.452474 -1.091423 1.563934 -2.646102 -7.775825 -10.560086 29.563986 5.751943 -1.997254 6.499205 -18.455686 9.263412 -1.506030 -38.961148 0.324967 19.901773 -27.508902 -63.834140 42.200142 -15.047817 -21.230345 0.215481 9.936759 -4.402713 2.450477 7.550486 -2.133911 7.646493 39.077595 63.854411 48.805587 3.122773 21.264598 14.986858 
0.417330 0.085610 1.019362 99.586224 -6.199561 94.716654 3.127796 2.722532 -14.531777 -5.155416 -4.582163 3.740383 -5.177905 6.293586 -4.317127 0.000000 -0.000000 0.000000 -10.498730 -5.293760 -4.893386 4.064152 -3.521518 0.346125 7.487807 -6.100160 -7.410656 0.000000 -0.000000 0.000000 5.687911 1.701037 4.946130 5.469224 -3.342411 11.590099 0.101047 1.525649 -2.114415 -6.969030 -11.977544 28.666551 5.364137 -3.505758 7.472798 -16.733510 10.443665 -1.275628 -39.898207 -0.693031 20.598723 -33.062991 -65.135453 49.610710 -15.486674 -22.264512 -3.329556 10.752602 -4.975458 -0.141487 7.448150 1.464193 5.145617 23.572445 64.840046 32.064660 3.590399 19.833352 11.380671 
0.415498 0.094158 1.018705 100.037306 -5.629399 94.598010 2.705745 2.055612 -15.454524 -5.295783 -3.739959 6.481784 -4.264238 6.154100 -4.309174 0.000000 -0.000000 0.000000 -10.419585 -5.462101 -4.325690 3.993794 -3.760624 -0.406642 7.837459 -6.063517 -6.988197 0.000000 -0.000000 0.000000 5.312859 2.497403 5.279446 7.650036 -3.477927 11.341517 1.292081 1.575913 -2.273195 -6.217215 -12.815645 28.021261 5.763321 -5.415177 7.446642 -14.998034 11.196376 -0.225446 -39.784828 -2.388219 20.759957 -40.093726 -66.160473 58.937614 -15.764251 -23.132062 -7.002653 12.785761 -5.091167 -1.505918 8.926092 5.553422 1.127445 2.008038 63.644426 8.387457 3.532625 19.330936 8.929956 
0.414186 0.103810 1.017968 100.177858 -5.048093 94.218647 2.508755 1.133309 -15.992408 -5.568657 -3.789062 10.207551 -3.496821 5.577691 -4.619688 0.000000 -0.000000 0.000000 -10.533356 -5.507693 -3.669079 4.083088 -3.895326 -0.759069 8.018734 -5.947332 -6.802832 0.000000 -0.000000 0.000000 4.877087 3.349464 5.665165 9.817193 -3.548877 11.570202 2.406127 1.963032 -2.631836 -5.156530 -13.272294 27.431230 6.205138 -8.050140 7.086084 -13.305199 11.639497 0.835039 -38.325120 -4.620798 20.912086 -48.531999 -67.356336 68.899765 -16.013802 -24.089121 -9.855928 15.474727 -4.325571 -2.255864 11.207741 9.981464 -2.542871 -19.186220 59.728325 -17.656344 1.665751 16.867559 3.406952 
0.413730 0.115006 1.016877 100.003337 -4.447682 93.981136 2.466631 0.232616 -15.975448 -5.686339 -3.828238 12.677418 -3.142470 4.833581 -4.512190 0.000000 -0.000000 0.000000 -10.627595 -5.560189 -3.059944 4.034737 -4.128350 -1.259397 8.262188 -5.706692 -6.594571 0.000000 -0.000000 0.000000 4.419356 4.301605 5.636506 11.989277 -3.738926 12.109060 3.586819 2.619523 -3.333181 -4.477223 -13.563380 26.904996 6.263710 -10.624751 7.195083 -12.011022 11.568897 1.711203 -35.791337 -6.852168 20.559622 -57.479324 -68.072872 79.117667 -16.479462 -25.332248 -12.471101 18.910962 -2.651297 -3.135460 12.067201 15.053313 -5.951705 -32.827807 53.926735 -35.082962 -0.598419 15.703114 -2.476941 
0.414009 0.127536 1.015222 99.495409 -3.884758 94.031279 2.345245 0.381513 -15.418888 -5.503721 -3.504510 12.913794 -3.023154 4.380176 -3.583978 0.000000 -0.000000 0.000000 -10.900984 -5.530123 -2.770299 4.115004 -4.285666 -1.680545 8.487707 -5.326507 -6.340309 0.000000 -0.000000 0.000000 3.824225 5.176468 5.012885 14.167588 -3.723944 12.922953 4.762219 3.263254 -4.084438 -4.353761 -13.775487 26.505430 6.488761 -13.318957 7.107700 -11.224070 11.396605 2.191537 -32.096177 -9.440978 20.028509 -66.378146 -68.239617 88.116903 -15.647083 -25.913979 -14.893669 22.802674 -0.771457 -3.864436 12.189900 20.474975 -8.828413 -41.407537 48.505107 -49.082293 -4.303601 14.445374 -9.316592 
